<svg width="657" height="320" viewBox="0 0 657 320" fill="none" xmlns="http://www.w3.org/2000/svg">
<g clip-path="url(#clip0_610_1718)">
<g filter="url(#filter0_f_610_1718)">
<rect x="499.25" y="160.617" width="327.687" height="339.929" rx="163.844" transform="rotate(179.806 499.25 160.617)" fill="url(#paint0_linear_610_1718)"/>
</g>
<g filter="url(#filter1_f_610_1718)">
<path d="M330 -298.596L642.117 243.433H17.8835L330 -298.596Z" fill="url(#paint1_linear_610_1718)"/>
</g>
<path d="M106.308 239.767C106.403 239.444 106.2 239.132 105.99 239.278C105.944 239.31 105.909 239.364 105.888 239.434C105.79 239.756 105.997 240.068 106.207 239.923C106.252 239.891 106.287 239.837 106.308 239.767Z" fill="white" fill-opacity="0.1"/>
<path d="M274.146 258.455C274.241 258.132 274.038 257.82 273.827 257.965C273.781 257.998 273.746 258.051 273.725 258.121C273.631 258.444 273.834 258.756 274.045 258.611C274.09 258.579 274.125 258.525 274.146 258.455Z" fill="white" fill-opacity="0.1"/>
<path d="M237.914 227.653C238.009 227.33 237.806 227.018 237.596 227.163C237.551 227.196 237.516 227.249 237.495 227.319C237.397 227.642 237.603 227.954 237.813 227.809C237.858 227.777 237.893 227.723 237.914 227.653Z" fill="white" fill-opacity="0.1"/>
<path d="M188.704 79.6566C188.802 79.3339 188.595 79.0219 188.385 79.1671C188.34 79.1994 188.305 79.2532 188.284 79.3231C188.189 79.6459 188.392 79.9578 188.602 79.8126C188.648 79.7803 188.683 79.7265 188.704 79.6566Z" fill="white" fill-opacity="0.1"/>
<path d="M219.052 71.3721C219.15 71.0502 218.944 70.7337 218.734 70.8839C218.688 70.9161 218.653 70.9697 218.632 71.0395C218.538 71.3614 218.741 71.6725 218.951 71.5277C218.996 71.4955 219.031 71.4418 219.052 71.3721Z" fill="white" fill-opacity="0.1"/>
<path d="M572.944 4.83874C573.039 4.516 572.835 4.20402 572.625 4.34925C572.579 4.38153 572.544 4.43532 572.523 4.50524C572.428 4.82798 572.632 5.13997 572.842 4.99474C572.888 4.96246 572.923 4.90867 572.944 4.83874Z" fill="white" fill-opacity="0.8"/>
<path d="M416.41 271.497C416.504 271.174 416.301 270.862 416.09 271.007C416.045 271.04 416.01 271.093 415.989 271.163C415.894 271.486 416.097 271.798 416.308 271.653C416.354 271.621 416.389 271.567 416.41 271.497Z" fill="white" fill-opacity="0.8"/>
<path d="M457.983 289.914C458.081 289.591 457.874 289.279 457.664 289.424C457.619 289.457 457.584 289.51 457.563 289.58C457.468 289.903 457.671 290.215 457.881 290.07C457.927 290.038 457.962 289.984 457.983 289.914Z" fill="white" fill-opacity="0.1"/>
<path d="M543.832 216.435C543.93 216.113 543.723 215.801 543.513 215.946C543.468 215.978 543.433 216.032 543.412 216.102C543.318 216.425 543.52 216.737 543.73 216.591C543.776 216.559 543.811 216.505 543.832 216.435Z" fill="white" fill-opacity="0.1"/>
<path d="M563.658 99.6193C563.756 99.2965 563.55 98.9845 563.34 99.1298C563.294 99.162 563.259 99.2158 563.238 99.2858C563.144 99.6085 563.347 99.9205 563.557 99.7753C563.602 99.743 563.637 99.6892 563.658 99.6193Z" fill="white" fill-opacity="0.1"/>
<path d="M543.407 11.4731C543.501 11.1504 543.298 10.8384 543.088 10.9837C543.043 11.0159 543.008 11.0697 542.987 11.1396C542.889 11.4624 543.095 11.7744 543.305 11.6291C543.351 11.5969 543.386 11.5431 543.407 11.4731Z" fill="white" fill-opacity="0.1"/>
<path d="M578.551 32.8701C578.646 32.5474 578.442 32.2354 578.232 32.3806C578.186 32.4129 578.151 32.4667 578.13 32.5366C578.035 32.8594 578.239 33.1713 578.449 33.0261C578.495 32.9938 578.53 32.94 578.551 32.8701Z" fill="white" fill-opacity="0.1"/>
<path d="M540.234 50.1202C540.332 49.7975 540.126 49.4855 539.916 49.6307C539.87 49.663 539.835 49.7168 539.814 49.7867C539.72 50.1095 539.923 50.4215 540.133 50.2762C540.178 50.244 540.213 50.1902 540.234 50.1202Z" fill="white" fill-opacity="0.1"/>
<path d="M541.169 127.027C541.267 126.704 541.06 126.392 540.85 126.538C540.805 126.57 540.77 126.624 540.749 126.694C540.654 127.016 540.857 127.328 541.067 127.183C541.113 127.151 541.148 127.097 541.169 127.027Z" fill="white" fill-opacity="0.1"/>
<path d="M614.998 139.246C615.093 138.923 614.89 138.611 614.68 138.756C614.634 138.789 614.599 138.843 614.578 138.912C614.48 139.235 614.687 139.547 614.897 139.402C614.942 139.37 614.977 139.316 614.998 139.246Z" fill="white" fill-opacity="0.1"/>
<path d="M222.962 145.715C223.056 145.392 222.854 145.08 222.644 145.225C222.598 145.258 222.563 145.311 222.542 145.381C222.444 145.704 222.651 146.016 222.861 145.871C222.906 145.839 222.941 145.785 222.962 145.715Z" fill="white" fill-opacity="0.1"/>
<path d="M341.18 252.809C341.275 252.487 341.071 252.175 340.861 252.32C340.815 252.352 340.78 252.406 340.759 252.476C340.664 252.799 340.868 253.111 341.078 252.965C341.124 252.933 341.159 252.879 341.18 252.809Z" fill="white" fill-opacity="0.1"/>
<path d="M277.807 224.808C277.905 224.485 277.699 224.173 277.489 224.318C277.444 224.35 277.409 224.404 277.388 224.474C277.293 224.797 277.496 225.109 277.706 224.964C277.751 224.931 277.786 224.878 277.807 224.808Z" fill="white" fill-opacity="0.1"/>
<path d="M158.877 267.743C158.972 267.42 158.769 267.108 158.559 267.254C158.513 267.286 158.478 267.34 158.457 267.41C158.359 267.732 158.566 268.044 158.776 267.899C158.821 267.867 158.856 267.813 158.877 267.743Z" fill="white" fill-opacity="0.1"/>
<path d="M440.239 6.27612C440.337 5.95338 440.13 5.6414 439.92 5.78663C439.875 5.81891 439.84 5.87269 439.819 5.94262C439.724 6.26536 439.927 6.57735 440.137 6.43211C440.183 6.39984 440.218 6.34604 440.239 6.27612Z" fill="white" fill-opacity="0.8"/>
<path d="M223.896 291.622C223.991 291.299 223.788 290.987 223.578 291.133C223.532 291.165 223.497 291.219 223.476 291.289C223.379 291.611 223.585 291.923 223.795 291.778C223.84 291.746 223.875 291.692 223.896 291.622Z" fill="white" fill-opacity="0.8"/>
<path d="M162.216 39.3389C162.314 39.0161 162.108 38.7041 161.898 38.8494C161.852 38.8816 161.817 38.9354 161.796 39.0054C161.702 39.3281 161.905 39.6401 162.115 39.4949C162.16 39.4626 162.195 39.4088 162.216 39.3389Z" fill="white" fill-opacity="0.1"/>
<path d="M219.691 12.745C219.785 12.4223 219.583 12.1103 219.373 12.2555C219.327 12.2878 219.292 12.3416 219.271 12.4115C219.173 12.7342 219.38 13.0462 219.59 12.901C219.635 12.8687 219.67 12.8149 219.691 12.745Z" fill="white" fill-opacity="0.8"/>
<path d="M84.6514 200.34C84.7461 200.017 84.5426 199.705 84.3322 199.851C84.2865 199.883 84.2515 199.937 84.2304 200.007C84.1357 200.329 84.3392 200.641 84.5497 200.496C84.5953 200.464 84.6304 200.41 84.6514 200.34Z" fill="white" fill-opacity="0.8"/>
<path d="M112.509 186.07C112.607 185.748 112.401 185.436 112.191 185.581C112.145 185.613 112.11 185.667 112.089 185.737C111.995 186.06 112.198 186.372 112.408 186.226C112.453 186.194 112.488 186.14 112.509 186.07Z" fill="white" fill-opacity="0.1"/>
<path d="M116.426 102.589C116.52 102.267 116.317 101.955 116.106 102.1C116.061 102.132 116.026 102.186 116.005 102.256C115.91 102.579 116.113 102.891 116.324 102.745C116.369 102.713 116.405 102.659 116.426 102.589Z" fill="white" fill-opacity="0.1"/>
<path d="M113.155 140.683C113.249 140.361 113.046 140.049 112.836 140.194C112.791 140.226 112.756 140.28 112.735 140.35C112.637 140.673 112.843 140.985 113.053 140.839C113.099 140.807 113.134 140.753 113.155 140.683Z" fill="white" fill-opacity="0.1"/>
<path d="M155.161 294.625C155.256 294.302 155.053 293.99 154.843 294.136C154.798 294.168 154.763 294.222 154.742 294.291C154.644 294.614 154.85 294.926 155.06 294.781C155.105 294.749 155.14 294.695 155.161 294.625Z" fill="white" fill-opacity="0.8"/>
<path d="M218.892 187.208C218.987 186.886 218.783 186.574 218.573 186.719C218.527 186.751 218.492 186.805 218.471 186.875C218.376 187.198 218.58 187.51 218.79 187.364C218.836 187.332 218.871 187.278 218.892 187.208Z" fill="white" fill-opacity="0.1"/>
<path d="M203.188 158.385C203.282 158.062 203.079 157.75 202.869 157.895C202.823 157.927 202.788 157.981 202.767 158.051C202.672 158.374 202.876 158.686 203.086 158.541C203.132 158.508 203.167 158.454 203.188 158.385Z" fill="white" fill-opacity="0.8"/>
<path d="M140.873 105.621C141.083 105.765 141.287 105.454 141.192 105.132C141.171 105.063 141.136 105.009 141.09 104.977C140.88 104.827 140.676 105.143 140.771 105.465C140.792 105.535 140.827 105.588 140.873 105.621Z" fill="white" fill-opacity="0.8"/>
<path d="M160.532 213.666C160.627 213.344 160.424 213.032 160.214 213.177C160.168 213.209 160.133 213.263 160.112 213.333C160.014 213.656 160.221 213.968 160.431 213.822C160.476 213.79 160.511 213.736 160.532 213.666Z" fill="white" fill-opacity="0.1"/>
<path d="M308.004 244.903C308.099 244.58 307.896 244.268 307.686 244.414C307.641 244.446 307.606 244.5 307.585 244.57C307.487 244.892 307.693 245.204 307.903 245.059C307.949 245.027 307.983 244.973 308.004 244.903Z" fill="white" fill-opacity="0.1"/>
<path d="M372.954 300.246C373.048 299.924 372.845 299.613 372.636 299.758C372.59 299.79 372.555 299.844 372.534 299.913C372.436 300.235 372.643 300.552 372.852 300.401C372.898 300.369 372.933 300.316 372.954 300.246Z" fill="white" fill-opacity="0.1"/>
<path d="M341.18 277.966C341.275 277.643 341.071 277.331 340.861 277.476C340.815 277.509 340.78 277.562 340.759 277.632C340.664 277.955 340.868 278.267 341.078 278.122C341.124 278.09 341.159 278.036 341.18 277.966Z" fill="white" fill-opacity="0.8"/>
<path d="M482.507 178.032C482.601 177.709 482.398 177.397 482.189 177.543C482.143 177.575 482.108 177.629 482.087 177.699C481.989 178.021 482.196 178.333 482.405 178.188C482.451 178.156 482.486 178.102 482.507 178.032Z" fill="white" fill-opacity="0.8"/>
<path d="M215.696 63.6254C215.79 63.3026 215.587 62.9906 215.377 63.1359C215.332 63.1681 215.297 63.2219 215.276 63.2919C215.178 63.6146 215.384 63.9266 215.594 63.7814C215.64 63.7491 215.675 63.6953 215.696 63.6254Z" fill="white" fill-opacity="0.1"/>
<path d="M516.078 77.4502C516.172 77.1275 515.969 76.8155 515.759 76.9607C515.714 76.993 515.679 77.0468 515.658 77.1167C515.56 77.4394 515.766 77.7514 515.976 77.6062C516.022 77.5739 516.057 77.5201 516.078 77.4502Z" fill="white" fill-opacity="0.1"/>
<path d="M522.958 18.0887C523.052 17.7668 522.849 17.4557 522.639 17.6005C522.594 17.6327 522.559 17.6863 522.538 17.7561C522.44 18.078 522.646 18.3945 522.856 18.2443C522.902 18.2121 522.937 18.1584 522.958 18.0887Z" fill="white" fill-opacity="0.1"/>
<path d="M490.751 148.94C490.845 148.618 490.642 148.306 490.432 148.451C490.387 148.483 490.352 148.537 490.331 148.607C490.233 148.93 490.439 149.242 490.649 149.096C490.695 149.064 490.73 149.01 490.751 148.94Z" fill="white" fill-opacity="0.1"/>
<path d="M83.7171 6.27472C83.8116 5.95284 83.6087 5.64169 83.3987 5.78653C83.3533 5.81872 83.3183 5.87237 83.2973 5.94211C83.1993 6.26399 83.4057 6.58051 83.6157 6.4303C83.6612 6.39811 83.6961 6.34446 83.7171 6.27472Z" fill="white" fill-opacity="0.1"/>
<path d="M580.786 56.1014C580.575 55.9512 580.372 56.2677 580.467 56.5896C580.488 56.6594 580.523 56.713 580.568 56.7452C580.779 56.8901 580.982 56.5789 580.888 56.257C580.867 56.1873 580.832 56.1336 580.786 56.1014Z" fill="white" fill-opacity="0.1"/>
<path d="M345.384 14.1824C345.482 13.8596 345.276 13.5476 345.066 13.6929C345.02 13.7252 344.985 13.7789 344.964 13.8489C344.87 14.1716 345.073 14.4836 345.283 14.3384C345.328 14.3061 345.363 14.2523 345.384 14.1824Z" fill="white" fill-opacity="0.1"/>
<path d="M274.197 202.103C274.292 201.78 274.088 201.468 273.878 201.613C273.832 201.645 273.797 201.699 273.776 201.769C273.681 202.092 273.885 202.404 274.095 202.259C274.141 202.226 274.176 202.173 274.197 202.103Z" fill="white" fill-opacity="0.1"/>
<path d="M302.434 23.0455C302.528 22.7236 302.325 22.4124 302.115 22.5573C302.07 22.5895 302.035 22.6431 302.014 22.7129C301.916 23.0347 302.122 23.3513 302.332 23.201C302.378 23.1689 302.413 23.1152 302.434 23.0455Z" fill="white" fill-opacity="0.1"/>
<path d="M503.32 224.778C503.418 224.455 503.212 224.143 503.002 224.288C502.956 224.321 502.921 224.374 502.9 224.444C502.806 224.767 503.009 225.079 503.219 224.934C503.264 224.902 503.299 224.848 503.32 224.778Z" fill="white" fill-opacity="0.8"/>
<path d="M105.753 33.6973C105.851 33.3745 105.644 33.0625 105.434 33.2078C105.389 33.24 105.354 33.2938 105.333 33.3638C105.238 33.6865 105.441 33.9985 105.651 33.8533C105.697 33.821 105.732 33.7672 105.753 33.6973Z" fill="white" fill-opacity="0.8"/>
<path d="M38.8594 41.4952C38.9541 41.1725 38.7506 40.8605 38.5402 41.0057C38.4945 41.038 38.4595 41.0918 38.4384 41.1617C38.3437 41.4845 38.5472 41.7965 38.7577 41.6512C38.8033 41.619 38.8384 41.5652 38.8594 41.4952Z" fill="white" fill-opacity="0.1"/>
<path d="M107.716 68.2067C107.81 67.8839 107.607 67.5719 107.396 67.7172C107.351 67.7494 107.316 67.8032 107.295 67.8732C107.2 68.1959 107.403 68.5079 107.614 68.3627C107.659 68.3304 107.695 68.2766 107.716 68.2067Z" fill="white" fill-opacity="0.1"/>
<path d="M248.961 23.5262C249.056 23.2035 248.852 22.8915 248.642 23.0368C248.596 23.069 248.561 23.1228 248.54 23.1927C248.446 23.5155 248.649 23.8275 248.859 23.6822C248.905 23.65 248.94 23.5962 248.961 23.5262Z" fill="white" fill-opacity="0.1"/>
<path d="M260.526 307.123C260.624 306.8 260.418 306.488 260.208 306.633C260.162 306.666 260.127 306.719 260.106 306.789C260.012 307.112 260.215 307.424 260.425 307.279C260.47 307.247 260.505 307.193 260.526 307.123V307.123Z" fill="white" fill-opacity="0.1"/>
<path d="M559.86 297.372C559.955 297.05 559.751 296.738 559.541 296.883C559.495 296.915 559.46 296.969 559.439 297.039C559.344 297.362 559.548 297.674 559.758 297.528C559.804 297.496 559.839 297.442 559.86 297.372Z" fill="white" fill-opacity="0.1"/>
<path d="M412.057 49.0049C412.152 48.6821 411.949 48.3702 411.739 48.5154C411.693 48.5477 411.658 48.6015 411.637 48.6714C411.539 48.9941 411.746 49.3061 411.956 49.1609C412.001 49.1286 412.036 49.0748 412.057 49.0049Z" fill="white" fill-opacity="0.1"/>
<path d="M430.929 27.5714C431.027 27.2487 430.821 26.9367 430.611 27.0819C430.565 27.1142 430.53 27.168 430.509 27.2379C430.415 27.5607 430.618 27.8726 430.828 27.7274C430.873 27.6951 430.908 27.6413 430.929 27.5714Z" fill="white" fill-opacity="0.1"/>
<path d="M123.902 167.277C123.996 166.955 123.793 166.643 123.584 166.788C123.538 166.82 123.503 166.874 123.482 166.944C123.384 167.267 123.591 167.579 123.8 167.433C123.846 167.401 123.881 167.347 123.902 167.277Z" fill="white" fill-opacity="0.1"/>
<path d="M240.079 62.2637C240.173 61.9409 239.97 61.6289 239.759 61.7742C239.714 61.8065 239.679 61.8602 239.658 61.9302C239.563 62.2529 239.766 62.5649 239.977 62.4197C240.023 62.3874 240.058 62.3336 240.079 62.2637Z" fill="white" fill-opacity="0.1"/>
<path d="M456.502 225.835C456.6 225.512 456.394 225.2 456.184 225.346C456.138 225.378 456.103 225.432 456.082 225.502C455.988 225.824 456.191 226.136 456.401 225.991C456.446 225.959 456.481 225.905 456.502 225.835Z" fill="white" fill-opacity="0.1"/>
<path d="M557.055 187.403C557.153 187.08 556.947 186.768 556.737 186.913C556.692 186.945 556.657 186.999 556.636 187.069C556.541 187.392 556.744 187.704 556.954 187.559C557 187.526 557.034 187.473 557.055 187.403Z" fill="white" fill-opacity="0.8"/>
<path d="M562.696 146.082C562.791 145.759 562.588 145.447 562.377 145.593C562.331 145.625 562.296 145.679 562.275 145.749C562.181 146.071 562.384 146.383 562.595 146.238C562.64 146.206 562.675 146.152 562.696 146.082Z" fill="white" fill-opacity="0.1"/>
<path d="M207.121 120.558C207.026 120.236 207.23 119.924 207.44 120.069C207.486 120.101 207.521 120.155 207.542 120.225C207.637 120.548 207.433 120.86 207.223 120.714C207.177 120.682 207.142 120.628 207.121 120.558Z" fill="white" fill-opacity="0.1"/>
<path d="M356.179 268.622C356.084 268.299 356.288 267.987 356.498 268.132C356.544 268.165 356.579 268.219 356.6 268.288C356.695 268.611 356.491 268.923 356.281 268.778C356.235 268.746 356.2 268.692 356.179 268.622Z" fill="white" fill-opacity="0.1"/>
<path d="M179.552 257.824C179.458 257.501 179.661 257.189 179.871 257.334C179.916 257.367 179.951 257.42 179.972 257.49C180.07 257.813 179.864 258.125 179.654 257.98C179.608 257.947 179.573 257.894 179.552 257.824Z" fill="white" fill-opacity="0.1"/>
<path d="M312.256 270.059C312.161 269.737 312.365 269.425 312.575 269.57C312.621 269.602 312.656 269.656 312.677 269.726C312.772 270.049 312.568 270.361 312.358 270.215C312.312 270.183 312.277 270.129 312.256 270.059Z" fill="white" fill-opacity="0.1"/>
<path d="M372.533 280.121C372.438 279.799 372.641 279.488 372.851 279.633C372.897 279.665 372.932 279.718 372.953 279.788C373.051 280.11 372.844 280.427 372.634 280.276C372.589 280.244 372.554 280.191 372.533 280.121Z" fill="white" fill-opacity="0.1"/>
<path d="M159.884 196.073C159.789 195.75 159.992 195.438 160.202 195.583C160.248 195.616 160.283 195.669 160.304 195.739C160.402 196.062 160.195 196.374 159.985 196.229C159.94 196.197 159.905 196.143 159.884 196.073Z" fill="white" fill-opacity="0.1"/>
<path d="M133.397 79.1016C133.607 78.9513 133.811 79.2679 133.716 79.5898C133.695 79.6595 133.66 79.7131 133.614 79.7453C133.404 79.8902 133.2 79.579 133.295 79.2571C133.316 79.1874 133.351 79.1337 133.397 79.1016Z" fill="white" fill-opacity="0.1"/>
<path d="M91.7067 187.577C91.6122 187.254 91.8151 186.942 92.0251 187.088C92.0705 187.12 92.1055 187.174 92.1265 187.244C92.2245 187.566 92.0181 187.878 91.8081 187.733C91.7626 187.701 91.7277 187.647 91.7067 187.577Z" fill="white" fill-opacity="0.1"/>
<path d="M467.99 22.9275C467.892 22.6047 468.098 22.2928 468.308 22.438C468.354 22.4703 468.389 22.5241 468.41 22.594C468.504 22.9167 468.301 23.2287 468.091 23.0835C468.046 23.0512 468.011 22.9974 467.99 22.9275Z" fill="white" fill-opacity="0.8"/>
<path d="M521.827 216.48C521.729 216.158 521.935 215.842 522.145 215.992C522.191 216.024 522.226 216.078 522.247 216.148C522.341 216.47 522.138 216.781 521.928 216.636C521.883 216.604 521.848 216.55 521.827 216.48Z" fill="white" fill-opacity="0.1"/>
<path d="M539.01 248.474C538.912 248.151 539.119 247.84 539.329 247.985C539.374 248.017 539.409 248.071 539.43 248.141C539.525 248.463 539.322 248.775 539.112 248.63C539.066 248.598 539.031 248.544 539.01 248.474Z" fill="white" fill-opacity="0.8"/>
<path d="M581.401 91.0892C581.306 90.7665 581.509 90.4545 581.719 90.5997C581.765 90.632 581.8 90.6858 581.821 90.7557C581.919 91.0785 581.712 91.3905 581.502 91.2452C581.457 91.2129 581.422 91.1592 581.401 91.0892Z" fill="white" fill-opacity="0.1"/>
<path d="M570.389 70.7279C570.291 70.4052 570.498 70.0932 570.708 70.2384C570.753 70.2707 570.788 70.3245 570.809 70.3944C570.904 70.7171 570.701 71.0291 570.491 70.8839C570.445 70.8516 570.41 70.7978 570.389 70.7279Z" fill="white" fill-opacity="0.8"/>
<path d="M537.946 167.996C537.848 167.673 538.055 167.361 538.265 167.507C538.31 167.539 538.345 167.593 538.366 167.663C538.461 167.985 538.258 168.297 538.048 168.152C538.002 168.12 537.967 168.066 537.946 167.996Z" fill="white" fill-opacity="0.1"/>
<path d="M394.495 0.526125C394.4 0.203383 394.603 -0.108604 394.813 0.0366305C394.858 0.0689048 394.893 0.122692 394.914 0.192619C395.012 0.515362 394.806 0.827348 394.596 0.682114C394.55 0.64984 394.516 0.596053 394.495 0.526125Z" fill="white" fill-opacity="0.1"/>
<path d="M383.45 8.057C383.356 7.73426 383.559 7.42228 383.77 7.56751C383.815 7.59979 383.85 7.65358 383.871 7.72351C383.966 8.04625 383.763 8.35823 383.552 8.213C383.507 8.18072 383.471 8.12693 383.45 8.057Z" fill="white" fill-opacity="0.1"/>
<path d="M125.8 244.902C125.705 244.579 125.909 244.267 126.119 244.412C126.165 244.445 126.2 244.499 126.221 244.568C126.316 244.891 126.112 245.203 125.902 245.058C125.856 245.026 125.821 244.972 125.8 244.902Z" fill="white" fill-opacity="0.1"/>
<path d="M68.8119 156.497C68.714 156.175 68.9204 155.858 69.1303 156.008C69.1758 156.041 69.2108 156.094 69.2318 156.164C69.3263 156.486 69.1233 156.797 68.9134 156.652C68.8679 156.62 68.8329 156.566 68.8119 156.497Z" fill="white" fill-opacity="0.1"/>
<path d="M85.1623 141.706C85.0643 141.383 85.2707 141.071 85.4807 141.217C85.5261 141.249 85.5611 141.303 85.5821 141.373C85.6766 141.695 85.4737 142.007 85.2637 141.862C85.2182 141.83 85.1833 141.776 85.1623 141.706Z" fill="white" fill-opacity="0.8"/>
<path d="M167.012 158.042C166.918 157.719 167.121 157.407 167.33 157.552C167.376 157.585 167.411 157.639 167.432 157.708C167.53 158.031 167.323 158.343 167.114 158.198C167.068 158.166 167.033 158.112 167.012 158.042Z" fill="white" fill-opacity="0.1"/>
<path d="M49.1854 81.0267C49.091 80.704 49.2939 80.392 49.5038 80.5372C49.5493 80.5695 49.5843 80.6233 49.6053 80.6932C49.7033 81.016 49.4968 81.328 49.2869 81.1827C49.2414 81.1505 49.2064 81.0967 49.1854 81.0267Z" fill="white" fill-opacity="0.1"/>
<path d="M590.712 122.683C590.618 122.36 590.821 122.048 591.031 122.193C591.076 122.226 591.111 122.28 591.132 122.349C591.23 122.672 591.024 122.984 590.814 122.839C590.768 122.807 590.733 122.753 590.712 122.683Z" fill="white" fill-opacity="0.1"/>
<path d="M611.783 97.8812C611.573 98.0264 611.369 97.7145 611.464 97.3917C611.485 97.3218 611.52 97.268 611.566 97.2357C611.776 97.0905 611.98 97.4025 611.885 97.7252C611.864 97.7952 611.829 97.8489 611.783 97.8812Z" fill="white" fill-opacity="0.8"/>
<path d="M600.411 74.712C600.2 74.8623 599.997 74.5457 600.091 74.2239C600.112 74.1541 600.147 74.1005 600.193 74.0683C600.403 73.9234 600.607 74.2346 600.512 74.5565C600.491 74.6262 600.456 74.6799 600.411 74.712Z" fill="white" fill-opacity="0.1"/>
<path d="M417.311 13.7729C417.216 13.4502 417.42 13.1382 417.63 13.2835C417.676 13.3157 417.711 13.3695 417.732 13.4394C417.827 13.7622 417.623 14.0742 417.413 13.9289C417.367 13.8967 417.332 13.8429 417.311 13.7729Z" fill="white" fill-opacity="0.1"/>
<path d="M136.691 147.087C136.596 146.764 136.799 146.452 137.009 146.597C137.054 146.629 137.089 146.683 137.11 146.753C137.208 147.076 137.002 147.388 136.792 147.243C136.747 147.21 136.712 147.157 136.691 147.087Z" fill="white" fill-opacity="0.1"/>
<path d="M274.875 8.43238C274.78 8.10963 274.983 7.79765 275.194 7.94288C275.24 7.97515 275.275 8.02894 275.296 8.09887C275.39 8.42161 275.187 8.7336 274.976 8.58836C274.931 8.55609 274.896 8.5023 274.875 8.43238Z" fill="white" fill-opacity="0.1"/>
<path d="M250.273 50.1184C250.178 49.7957 250.381 49.4837 250.591 49.6289C250.637 49.6612 250.672 49.715 250.693 49.7849C250.791 50.1076 250.584 50.4196 250.374 50.2744C250.329 50.2421 250.294 50.1883 250.273 50.1184Z" fill="white" fill-opacity="0.1"/>
<path d="M294.349 50.3225C294.255 49.9998 294.458 49.6878 294.669 49.833C294.714 49.8653 294.749 49.9191 294.77 49.989C294.865 50.3117 294.662 50.6237 294.451 50.4785C294.405 50.4462 294.37 50.3924 294.349 50.3225Z" fill="white" fill-opacity="0.1"/>
<path d="M217.646 260.57C217.551 260.247 217.755 259.935 217.965 260.08C218.011 260.112 218.046 260.166 218.067 260.236C218.162 260.559 217.958 260.871 217.748 260.726C217.702 260.693 217.667 260.64 217.646 260.57Z" fill="white" fill-opacity="0.1"/>
<path d="M535.845 264.297C535.747 263.974 535.954 263.662 536.164 263.807C536.209 263.84 536.244 263.893 536.265 263.963C536.36 264.286 536.157 264.598 535.947 264.453C535.901 264.421 535.866 264.367 535.845 264.297Z" fill="white" fill-opacity="0.8"/>
<path d="M297.304 277.966C297.209 277.643 297.412 277.331 297.623 277.476C297.669 277.509 297.704 277.562 297.725 277.632C297.819 277.955 297.616 278.267 297.405 278.122C297.36 278.09 297.325 278.036 297.304 277.966Z" fill="white" fill-opacity="0.1"/>
<path d="M329.077 298.81C328.983 298.487 329.186 298.175 329.397 298.32C329.442 298.353 329.477 298.406 329.498 298.476C329.593 298.799 329.39 299.111 329.179 298.966C329.133 298.934 329.098 298.88 329.077 298.81Z" fill="white" fill-opacity="0.8"/>
<path d="M385.888 249.762C385.793 249.44 385.997 249.128 386.207 249.273C386.253 249.305 386.288 249.359 386.309 249.429C386.404 249.752 386.2 250.064 385.99 249.918C385.944 249.886 385.909 249.832 385.888 249.762Z" fill="white" fill-opacity="0.8"/>
<path d="M273.006 281.56C272.911 281.237 273.114 280.925 273.325 281.07C273.37 281.102 273.405 281.156 273.427 281.226C273.521 281.549 273.318 281.861 273.107 281.716C273.062 281.683 273.027 281.63 273.006 281.56Z" fill="white" fill-opacity="0.8"/>
<path d="M292.163 306.716C292.069 306.393 292.272 306.081 292.482 306.227C292.527 306.259 292.562 306.313 292.583 306.383C292.681 306.705 292.475 307.017 292.265 306.872C292.219 306.84 292.184 306.786 292.163 306.716V306.716Z" fill="white" fill-opacity="0.1"/>
<path d="M164.133 60.9016C164.038 60.5789 164.241 60.2669 164.451 60.4121C164.497 60.4444 164.532 60.4982 164.553 60.5681C164.651 60.8909 164.444 61.2028 164.234 61.0576C164.189 61.0253 164.154 60.9715 164.133 60.9016Z" fill="white" fill-opacity="0.1"/>
<path d="M439.043 254.235C438.948 253.912 439.151 253.6 439.361 253.745C439.407 253.778 439.442 253.831 439.463 253.901C439.561 254.224 439.354 254.536 439.144 254.391C439.099 254.359 439.064 254.305 439.043 254.235Z" fill="white" fill-opacity="0.1"/>
<path d="M422.948 245.074C422.85 244.751 423.057 244.439 423.267 244.584C423.312 244.616 423.347 244.67 423.368 244.74C423.463 245.063 423.26 245.375 423.05 245.23C423.004 245.197 422.969 245.144 422.948 245.074Z" fill="white" fill-opacity="0.1"/>
<path d="M504.771 115.527C504.673 115.206 504.879 114.889 505.089 115.039C505.135 115.071 505.17 115.125 505.191 115.195C505.285 115.517 505.082 115.828 504.872 115.683C504.827 115.651 504.792 115.597 504.771 115.527Z" fill="white" fill-opacity="0.1"/>
<path d="M472.826 41.8602C472.731 41.5375 472.935 41.2255 473.145 41.3707C473.191 41.403 473.226 41.4568 473.247 41.5267C473.342 41.8495 473.138 42.1615 472.928 42.0162C472.882 41.9839 472.847 41.9302 472.826 41.8602Z" fill="white" fill-opacity="0.8"/>
<path d="M448.23 51.5577C448.135 51.235 448.338 50.923 448.548 51.0682C448.594 51.1005 448.629 51.1543 448.65 51.2242C448.748 51.547 448.541 51.859 448.331 51.7137C448.286 51.6815 448.251 51.6277 448.23 51.5577Z" fill="white" fill-opacity="0.1"/>
<path d="M481.8 254.006C481.705 253.683 481.909 253.371 482.119 253.517C482.165 253.549 482.2 253.603 482.221 253.673C482.315 253.995 482.112 254.307 481.901 254.162C481.856 254.13 481.821 254.076 481.8 254.006Z" fill="white" fill-opacity="0.1"/>
<path d="M475.527 67.2687C475.43 66.9459 475.636 66.634 475.846 66.7792C475.891 66.8115 475.926 66.8653 475.947 66.9352C476.042 67.2579 475.839 67.5699 475.629 67.4247C475.583 67.3924 475.548 67.3386 475.527 67.2687Z" fill="white" fill-opacity="0.1"/>
<path d="M501.966 39.3375C501.871 39.0156 502.074 38.7044 502.284 38.8493C502.33 38.8815 502.365 38.9351 502.386 39.0048C502.484 39.3267 502.277 39.6433 502.067 39.493C502.022 39.4609 501.987 39.4072 501.966 39.3375Z" fill="white" fill-opacity="0.1"/>
<path d="M523.718 175.374C523.623 175.051 523.826 174.739 524.036 174.884C524.082 174.916 524.117 174.97 524.138 175.04C524.235 175.363 524.029 175.675 523.819 175.53C523.774 175.497 523.739 175.444 523.718 175.374Z" fill="white" fill-opacity="0.1"/>
<path d="M511.666 141.059C511.571 140.736 511.775 140.424 511.985 140.569C512.031 140.601 512.066 140.655 512.087 140.725C512.182 141.048 511.978 141.36 511.768 141.215C511.722 141.182 511.687 141.129 511.666 141.059Z" fill="white" fill-opacity="0.1"/>
<path d="M564.581 223.34C564.483 223.018 564.689 222.706 564.899 222.851C564.945 222.883 564.98 222.937 565.001 223.007C565.095 223.33 564.892 223.642 564.682 223.496C564.637 223.464 564.602 223.41 564.581 223.34Z" fill="white" fill-opacity="0.1"/>
<path d="M501.032 195.309C500.937 194.986 501.14 194.674 501.35 194.819C501.396 194.852 501.43 194.905 501.451 194.975C501.549 195.298 501.343 195.61 501.133 195.465C501.088 195.433 501.053 195.379 501.032 195.309Z" fill="white" fill-opacity="0.1"/>
<path d="M578.928 200.829C578.833 200.506 579.036 200.194 579.246 200.339C579.291 200.371 579.326 200.425 579.347 200.495C579.445 200.818 579.239 201.13 579.029 200.985C578.984 200.952 578.949 200.899 578.928 200.829Z" fill="white" fill-opacity="0.1"/>
<path d="M134.624 200.884C134.529 200.561 134.732 200.249 134.942 200.394C134.988 200.427 135.023 200.48 135.044 200.55C135.141 200.873 134.935 201.185 134.725 201.04C134.68 201.008 134.645 200.954 134.624 200.884Z" fill="white" fill-opacity="0.1"/>
<path d="M505.315 257.152C505.22 256.829 505.424 256.517 505.634 256.662C505.68 256.695 505.715 256.748 505.736 256.818C505.831 257.141 505.627 257.453 505.417 257.308C505.371 257.275 505.336 257.222 505.315 257.152Z" fill="white" fill-opacity="0.1"/>
<path d="M393.56 277.966C393.466 277.643 393.669 277.331 393.88 277.476C393.925 277.509 393.96 277.562 393.981 277.632C394.076 277.955 393.873 278.267 393.662 278.122C393.617 278.09 393.582 278.036 393.56 277.966Z" fill="white" fill-opacity="0.1"/>
<path d="M498.16 291.75C498.062 291.427 498.268 291.115 498.478 291.261C498.524 291.293 498.559 291.347 498.58 291.416C498.674 291.739 498.471 292.051 498.261 291.906C498.216 291.874 498.181 291.82 498.16 291.75Z" fill="white" fill-opacity="0.8"/>
<path d="M437.506 74.558C437.604 74.2352 437.397 73.9233 437.187 74.0685C437.142 74.1008 437.107 74.1546 437.086 74.2245C436.991 74.5472 437.194 74.8592 437.404 74.714C437.45 74.6817 437.485 74.6279 437.506 74.558Z" fill="white" fill-opacity="0.8"/>
<path d="M494.045 147.152C494.14 146.829 493.937 146.517 493.726 146.663C493.681 146.695 493.646 146.749 493.624 146.819C493.53 147.141 493.733 147.453 493.944 147.308C493.989 147.276 494.024 147.222 494.045 147.152Z" fill="white" fill-opacity="0.1"/>
<path d="M473.196 98.2545C473.098 97.9318 473.304 97.6198 473.514 97.765C473.56 97.7973 473.595 97.8511 473.616 97.921C473.71 98.2438 473.507 98.5557 473.297 98.4105C473.252 98.3782 473.217 98.3244 473.196 98.2545Z" fill="white" fill-opacity="0.8"/>
<path d="M470.031 114.077C469.933 113.754 470.139 113.442 470.349 113.587C470.395 113.62 470.43 113.673 470.451 113.743C470.545 114.066 470.342 114.378 470.132 114.233C470.087 114.201 470.052 114.147 470.031 114.077Z" fill="white" fill-opacity="0.8"/>
<path d="M498.765 73.1205C498.667 72.7977 498.873 72.4858 499.083 72.631C499.129 72.6633 499.164 72.7171 499.185 72.787C499.279 73.1097 499.076 73.4217 498.866 73.2765C498.821 73.2442 498.786 73.1904 498.765 73.1205Z" fill="white" fill-opacity="0.1"/>
<path d="M439.5 106.932C439.405 106.609 439.609 106.297 439.819 106.442C439.865 106.475 439.9 106.528 439.921 106.598C440.016 106.921 439.812 107.233 439.602 107.088C439.556 107.055 439.521 107.002 439.5 106.932Z" fill="white" fill-opacity="0.1"/>
<path d="M432.344 141.53C432.246 141.207 432.452 140.895 432.662 141.04C432.708 141.073 432.743 141.126 432.764 141.196C432.858 141.519 432.655 141.831 432.445 141.686C432.4 141.654 432.365 141.6 432.344 141.53Z" fill="white" fill-opacity="0.8"/>
<path d="M472.145 209.692C472.047 209.37 472.254 209.058 472.464 209.203C472.509 209.235 472.544 209.289 472.565 209.359C472.66 209.682 472.457 209.994 472.247 209.848C472.201 209.816 472.166 209.762 472.145 209.692Z" fill="white" fill-opacity="0.1"/>
<path d="M592.063 168.9C591.968 168.577 592.171 168.265 592.381 168.411C592.427 168.443 592.462 168.497 592.483 168.567C592.581 168.889 592.374 169.201 592.164 169.056C592.119 169.024 592.084 168.97 592.063 168.9Z" fill="white" fill-opacity="0.1"/>
<path d="M629.848 55.3057C629.638 55.4559 629.434 55.1394 629.529 54.8175C629.55 54.7477 629.585 54.6941 629.63 54.6619C629.841 54.5171 630.044 54.8282 629.95 55.1501C629.929 55.2198 629.894 55.2735 629.848 55.3057Z" fill="white" fill-opacity="0.1"/>
<path d="M401.138 101.152C401.232 100.829 401.029 100.517 400.818 100.662C400.773 100.695 400.738 100.748 400.717 100.818C400.622 101.141 400.825 101.453 401.036 101.308C401.082 101.276 401.117 101.222 401.138 101.152Z" fill="white" fill-opacity="0.8"/>
<path d="M391.852 195.932C391.95 195.61 391.743 195.298 391.533 195.443C391.488 195.475 391.453 195.529 391.432 195.599C391.338 195.922 391.54 196.234 391.75 196.088C391.796 196.056 391.831 196.002 391.852 195.932Z" fill="white" fill-opacity="0.1"/>
<path d="M371.601 107.786C371.696 107.464 371.493 107.152 371.283 107.297C371.238 107.329 371.203 107.383 371.182 107.453C371.084 107.776 371.29 108.088 371.5 107.942C371.545 107.91 371.58 107.856 371.601 107.786Z" fill="white" fill-opacity="0.1"/>
<path d="M406.745 129.183C406.84 128.861 406.636 128.549 406.426 128.694C406.38 128.726 406.345 128.78 406.324 128.85C406.229 129.173 406.433 129.485 406.643 129.339C406.689 129.307 406.724 129.253 406.745 129.183Z" fill="white" fill-opacity="0.1"/>
<path d="M290.247 171.59C290.345 171.267 290.139 170.955 289.929 171.1C289.883 171.133 289.848 171.187 289.827 171.256C289.733 171.579 289.936 171.891 290.146 171.746C290.191 171.714 290.226 171.66 290.247 171.59Z" fill="white" fill-opacity="0.1"/>
<path d="M369.362 223.34C369.46 223.018 369.254 222.706 369.044 222.851C368.998 222.883 368.963 222.937 368.942 223.007C368.848 223.33 369.051 223.642 369.261 223.496C369.306 223.464 369.341 223.41 369.362 223.34Z" fill="white" fill-opacity="0.1"/>
<path d="M443.191 235.559C443.285 235.236 443.083 234.924 442.873 235.07C442.827 235.102 442.792 235.156 442.771 235.226C442.673 235.548 442.88 235.86 443.09 235.715C443.135 235.683 443.17 235.629 443.191 235.559Z" fill="white" fill-opacity="0.1"/>
<path d="M268.433 102.589C268.531 102.267 268.325 101.955 268.115 102.1C268.069 102.132 268.034 102.186 268.013 102.256C267.919 102.579 268.122 102.891 268.332 102.745C268.377 102.713 268.412 102.659 268.433 102.589Z" fill="white" fill-opacity="0.8"/>
<path d="M266.091 198.92C266.185 198.597 265.982 198.285 265.773 198.43C265.727 198.463 265.692 198.516 265.671 198.586C265.573 198.909 265.78 199.221 265.989 199.076C266.035 199.044 266.07 198.99 266.091 198.92Z" fill="white" fill-opacity="0.1"/>
<path d="M351.151 114.402C351.246 114.08 351.043 113.769 350.833 113.914C350.787 113.946 350.752 114 350.731 114.069C350.633 114.391 350.84 114.708 351.05 114.557C351.095 114.525 351.13 114.472 351.151 114.402Z" fill="white" fill-opacity="0.1"/>
<path d="M318.945 245.254C319.04 244.931 318.837 244.619 318.627 244.764C318.582 244.796 318.547 244.85 318.526 244.92C318.428 245.243 318.634 245.555 318.844 245.41C318.889 245.377 318.924 245.324 318.945 245.254Z" fill="white" fill-opacity="0.1"/>
<path d="M408.979 152.415C408.769 152.264 408.565 152.581 408.66 152.903C408.681 152.973 408.716 153.026 408.762 153.058C408.972 153.203 409.176 152.892 409.081 152.57C409.06 152.501 409.025 152.447 408.979 152.415Z" fill="white" fill-opacity="0.1"/>
<path d="M240.251 145.318C240.345 144.995 240.142 144.684 239.932 144.829C239.887 144.861 239.852 144.915 239.831 144.985C239.733 145.307 239.939 145.619 240.149 145.474C240.195 145.442 240.23 145.388 240.251 145.318Z" fill="white" fill-opacity="0.1"/>
<path d="M259.123 123.885C259.221 123.562 259.014 123.25 258.804 123.395C258.759 123.427 258.724 123.481 258.703 123.551C258.609 123.874 258.811 124.186 259.021 124.041C259.067 124.008 259.102 123.955 259.123 123.885Z" fill="white" fill-opacity="0.1"/>
<path d="M390.89 242.396C390.985 242.073 390.781 241.761 390.571 241.906C390.525 241.938 390.49 241.992 390.469 242.062C390.374 242.385 390.578 242.697 390.788 242.551C390.834 242.519 390.869 242.465 390.89 242.396Z" fill="white" fill-opacity="0.1"/>
<path d="M296.184 119.241C296.086 118.918 296.292 118.606 296.502 118.751C296.547 118.784 296.582 118.837 296.603 118.907C296.698 119.23 296.495 119.542 296.285 119.397C296.239 119.365 296.204 119.311 296.184 119.241Z" fill="white" fill-opacity="0.8"/>
<path d="M409.594 187.403C409.5 187.08 409.703 186.768 409.913 186.913C409.958 186.945 409.993 186.999 410.014 187.069C410.112 187.392 409.906 187.704 409.696 187.559C409.65 187.526 409.615 187.473 409.594 187.403Z" fill="white" fill-opacity="0.1"/>
<path d="M398.584 167.041C398.486 166.718 398.692 166.406 398.902 166.552C398.948 166.584 398.983 166.638 399.004 166.708C399.098 167.03 398.895 167.342 398.685 167.197C398.64 167.165 398.605 167.111 398.584 167.041Z" fill="white" fill-opacity="0.8"/>
<path d="M418.907 218.996C418.812 218.673 419.015 218.361 419.225 218.507C419.271 218.539 419.305 218.593 419.326 218.663C419.424 218.985 419.218 219.297 419.008 219.152C418.963 219.12 418.928 219.066 418.907 218.996Z" fill="white" fill-opacity="0.1"/>
<path d="M439.977 194.194C439.767 194.34 439.563 194.028 439.658 193.705C439.679 193.635 439.714 193.581 439.76 193.549C439.97 193.404 440.174 193.716 440.079 194.038C440.058 194.108 440.023 194.162 439.977 194.194Z" fill="white" fill-opacity="0.8"/>
<path d="M428.604 171.025C428.394 171.176 428.19 170.859 428.285 170.537C428.306 170.467 428.341 170.414 428.387 170.382C428.597 170.237 428.801 170.548 428.706 170.87C428.685 170.94 428.65 170.993 428.604 171.025Z" fill="white" fill-opacity="0.1"/>
<path d="M245.505 110.086C245.41 109.763 245.614 109.451 245.824 109.597C245.87 109.629 245.905 109.683 245.926 109.753C246.021 110.075 245.817 110.387 245.607 110.242C245.561 110.21 245.526 110.156 245.505 110.086Z" fill="white" fill-opacity="0.1"/>
<path d="M332.965 211.841C332.867 211.519 333.073 211.202 333.283 211.353C333.328 211.385 333.363 211.438 333.384 211.508C333.479 211.83 333.276 212.141 333.066 211.996C333.02 211.964 332.986 211.911 332.965 211.841Z" fill="white" fill-opacity="0.1"/>
<path d="M301.02 138.173C300.926 137.851 301.129 137.539 301.34 137.684C301.385 137.716 301.42 137.77 301.441 137.84C301.536 138.163 301.333 138.475 301.122 138.329C301.077 138.297 301.042 138.243 301.02 138.173Z" fill="white" fill-opacity="0.8"/>
<path d="M276.424 147.871C276.329 147.548 276.532 147.236 276.742 147.382C276.788 147.414 276.823 147.468 276.844 147.538C276.942 147.86 276.735 148.172 276.525 148.027C276.48 147.995 276.445 147.941 276.424 147.871Z" fill="white" fill-opacity="0.1"/>
<path d="M303.721 163.582C303.623 163.259 303.83 162.947 304.04 163.092C304.085 163.125 304.12 163.178 304.141 163.248C304.235 163.571 304.032 163.883 303.823 163.738C303.777 163.706 303.742 163.652 303.721 163.582Z" fill="white" fill-opacity="0.1"/>
<path d="M251.979 160.807C251.884 160.485 252.087 160.174 252.297 160.319C252.343 160.351 252.378 160.405 252.399 160.475C252.497 160.796 252.29 161.113 252.08 160.963C252.035 160.931 252 160.877 251.979 160.807Z" fill="white" fill-opacity="0.1"/>
<path d="M339.859 237.372C339.765 237.049 339.968 236.737 340.179 236.882C340.224 236.915 340.259 236.969 340.28 237.038C340.375 237.361 340.172 237.673 339.961 237.528C339.915 237.496 339.88 237.442 339.859 237.372Z" fill="white" fill-opacity="0.1"/>
<path d="M458.042 151.619C457.832 151.769 457.628 151.453 457.723 151.131C457.744 151.061 457.779 151.007 457.825 150.975C458.035 150.83 458.239 151.141 458.144 151.463C458.123 151.533 458.088 151.587 458.042 151.619Z" fill="white" fill-opacity="0.1"/>
<path d="M144.976 175.902C144.878 175.58 145.085 175.268 145.295 175.413C145.34 175.445 145.375 175.499 145.396 175.569C145.491 175.892 145.288 176.204 145.078 176.058C145.032 176.026 144.997 175.972 144.976 175.902Z" fill="white" fill-opacity="0.1"/>
<path d="M240.766 280.841C240.668 280.518 240.874 280.206 241.084 280.351C241.13 280.384 241.165 280.437 241.186 280.507C241.28 280.83 241.077 281.142 240.867 280.997C240.822 280.965 240.787 280.911 240.766 280.841Z" fill="white" fill-opacity="0.1"/>
<path d="M195.441 277.247C195.343 276.924 195.549 276.612 195.759 276.758C195.805 276.79 195.84 276.844 195.861 276.914C195.955 277.236 195.752 277.548 195.542 277.403C195.497 277.371 195.462 277.317 195.441 277.247Z" fill="white" fill-opacity="0.8"/>
<path d="M238.896 254.247C238.798 253.924 239.005 253.612 239.215 253.757C239.26 253.79 239.295 253.843 239.316 253.913C239.411 254.236 239.208 254.548 238.998 254.403C238.952 254.371 238.917 254.317 238.896 254.247Z" fill="white" fill-opacity="0.1"/>
<path d="M184.302 196.855C184.204 196.532 184.41 196.22 184.62 196.365C184.666 196.398 184.701 196.451 184.722 196.521C184.816 196.844 184.613 197.156 184.403 197.011C184.358 196.979 184.323 196.925 184.302 196.855Z" fill="white" fill-opacity="0.1"/>
<path d="M238.37 195.358C238.272 195.035 238.479 194.723 238.689 194.869C238.734 194.901 238.769 194.955 238.79 195.025C238.885 195.347 238.682 195.659 238.472 195.514C238.426 195.482 238.391 195.428 238.37 195.358Z" fill="white" fill-opacity="0.1"/>
<path d="M206.903 238.717C206.809 238.395 207.012 238.083 207.223 238.228C207.268 238.26 207.303 238.314 207.324 238.384C207.419 238.707 207.215 239.019 207.005 238.873C206.959 238.841 206.924 238.787 206.903 238.717Z" fill="white" fill-opacity="0.1"/>
<path d="M376.225 30.7139C376.319 30.3911 376.116 30.0791 375.907 30.2244C375.861 30.2566 375.826 30.3104 375.805 30.3804C375.707 30.7031 375.914 31.0151 376.123 30.8699C376.169 30.8376 376.204 30.7838 376.225 30.7139Z" fill="white" fill-opacity="0.1"/>
<path d="M362.207 94.6831C362.302 94.3604 362.099 94.0484 361.889 94.1936C361.843 94.2259 361.808 94.2797 361.787 94.3496C361.689 94.6723 361.896 94.9843 362.106 94.8391C362.151 94.8068 362.186 94.753 362.207 94.6831Z" fill="white" fill-opacity="0.8"/>
<path d="M317.863 60.8848C317.769 60.562 317.972 60.25 318.182 60.3953C318.227 60.4275 318.262 60.4813 318.283 60.5513C318.381 60.874 318.175 61.186 317.965 61.0408C317.919 61.0085 317.884 60.9547 317.863 60.8848Z" fill="white" fill-opacity="0.1"/>
<path d="M355.957 63.6306C355.862 63.3079 356.065 62.9959 356.276 63.1411C356.322 63.1734 356.357 63.2272 356.378 63.2971C356.472 63.6199 356.269 63.9318 356.058 63.7866C356.013 63.7543 355.978 63.7005 355.957 63.6306Z" fill="white" fill-opacity="0.1"/>
<path d="M379.076 83.9019C378.978 83.5791 379.185 83.2671 379.394 83.4124C379.44 83.4446 379.475 83.4984 379.496 83.5684C379.59 83.8911 379.387 84.2031 379.178 84.0578C379.132 84.0256 379.097 83.9718 379.076 83.9019Z" fill="white" fill-opacity="0.1"/>
<path d="M333.751 80.308C333.653 79.9852 333.86 79.6733 334.07 79.8185C334.115 79.8508 334.15 79.9046 334.171 79.9745C334.266 80.2972 334.063 80.6092 333.853 80.464C333.807 80.4317 333.772 80.3779 333.751 80.308Z" fill="white" fill-opacity="0.8"/>
<path d="M377.207 57.3079C377.109 56.9851 377.315 56.6731 377.525 56.8184C377.571 56.8506 377.606 56.9044 377.627 56.9744C377.721 57.2971 377.518 57.6091 377.308 57.4639C377.263 57.4316 377.228 57.3778 377.207 57.3079Z" fill="white" fill-opacity="0.1"/>
<path d="M345.214 41.7783C345.119 41.4556 345.323 41.1436 345.533 41.2888C345.579 41.3211 345.614 41.3749 345.635 41.4448C345.73 41.7676 345.526 42.0795 345.316 41.9343C345.27 41.902 345.235 41.8482 345.214 41.7783Z" fill="white" fill-opacity="0.1"/>
<path d="M131.547 225.88C131.453 225.557 131.656 225.245 131.867 225.39C131.912 225.423 131.947 225.476 131.968 225.546C132.063 225.869 131.86 226.181 131.649 226.036C131.603 226.004 131.568 225.95 131.547 225.88Z" fill="white" fill-opacity="0.8"/>
<path d="M77.2214 55.8704C77.1267 55.5476 77.3301 55.2356 77.5406 55.3809C77.5862 55.4131 77.6213 55.4669 77.6424 55.5369C77.7371 55.8596 77.5336 56.1716 77.3231 56.0264C77.2775 55.9941 77.2424 55.9403 77.2214 55.8704Z" fill="white" fill-opacity="0.1"/>
<path d="M190.667 19.9192C190.573 19.5974 190.776 19.2862 190.986 19.4311C191.031 19.4633 191.066 19.5169 191.087 19.5866C191.185 19.9085 190.979 20.225 190.769 20.0748C190.723 20.0426 190.688 19.989 190.667 19.9192Z" fill="white" fill-opacity="0.1"/>
<path d="M140.503 6.58398C140.408 6.26124 140.611 5.94926 140.822 6.09449C140.867 6.12677 140.903 6.18055 140.924 6.25048C141.018 6.57322 140.815 6.88521 140.604 6.73998C140.559 6.7077 140.524 6.65391 140.503 6.58398Z" fill="white" fill-opacity="0.1"/>
<path d="M140.303 35.0264C140.205 34.7036 140.412 34.3916 140.622 34.5369C140.667 34.5691 140.702 34.6229 140.723 34.6929C140.818 35.0156 140.615 35.3276 140.405 35.1824C140.359 35.1501 140.324 35.0963 140.303 35.0264Z" fill="white" fill-opacity="0.1"/>
<path d="M217.87 40.0577C217.772 39.735 217.978 39.423 218.188 39.5682C218.233 39.6005 218.268 39.6543 218.289 39.7242C218.384 40.047 218.181 40.359 217.971 40.2137C217.926 40.1815 217.891 40.1277 217.87 40.0577Z" fill="white" fill-opacity="0.1"/>
<path d="M97.7812 104.027C97.6865 103.704 97.89 103.392 98.1004 103.537C98.146 103.57 98.1811 103.624 98.2022 103.693C98.2969 104.016 98.0934 104.328 97.8829 104.183C97.8373 104.151 97.8022 104.097 97.7812 104.027Z" fill="white" fill-opacity="0.1"/>
<path d="M73.3524 94.9978C73.258 94.6751 73.4609 94.3631 73.6708 94.5083C73.7163 94.5406 73.7513 94.5944 73.7723 94.6643C73.8703 94.987 73.6638 95.299 73.4539 95.1538C73.4084 95.1215 73.3734 95.0677 73.3524 94.9978Z" fill="white" fill-opacity="0.1"/>
<path d="M591.78 180.295C592.359 180.382 592.918 180.183 592.656 179.984C592.598 179.941 592.501 179.908 592.375 179.888C591.796 179.802 591.238 180 591.499 180.2C591.558 180.243 591.654 180.276 591.78 180.295Z" fill="white" fill-opacity="0.8"/>
<path d="M112.482 33.7217C113.061 33.8084 113.62 33.6099 113.358 33.4102C113.3 33.3669 113.203 33.334 113.077 33.3147C112.498 33.228 111.94 33.4265 112.201 33.6262C112.26 33.6695 112.356 33.7024 112.482 33.7217Z" fill="white" fill-opacity="0.8"/>
<path d="M79.7208 73.741C80.3003 73.8308 80.8586 73.6294 80.5967 73.4302C80.5385 73.3871 80.4418 73.3543 80.3162 73.335C79.7368 73.2485 79.1785 73.4466 79.4404 73.6458C79.4986 73.6889 79.5953 73.7217 79.7208 73.741Z" fill="white" fill-opacity="0.1"/>
<path d="M212.072 155.015C212.651 155.105 213.209 154.904 212.948 154.704C212.889 154.661 212.793 154.628 212.667 154.609C212.088 154.523 211.529 154.721 211.791 154.92C211.849 154.963 211.946 154.996 212.072 155.015Z" fill="white" fill-opacity="0.1"/>
<path d="M421.722 172.566C422.301 172.656 422.86 172.454 422.598 172.255C422.539 172.212 422.443 172.179 422.317 172.16C421.738 172.073 421.179 172.272 421.441 172.471C421.5 172.514 421.596 172.547 421.722 172.566Z" fill="white" fill-opacity="0.1"/>
<path d="M579.688 152.105C580.267 152.191 580.825 151.993 580.564 151.794C580.505 151.751 580.409 151.718 580.283 151.699C579.704 151.609 579.145 151.811 579.407 152.01C579.465 152.053 579.562 152.086 579.688 152.105Z" fill="white" fill-opacity="0.1"/>
<path d="M541.55 185.976C542.129 186.063 542.688 185.864 542.426 185.664C542.368 185.621 542.271 185.588 542.145 185.569C541.566 185.482 541.008 185.681 541.269 185.881C541.328 185.924 541.424 185.957 541.55 185.976Z" fill="white" fill-opacity="0.1"/>
<path d="M510.35 149.539C510.929 149.629 511.487 149.427 511.226 149.228C511.167 149.185 511.071 149.152 510.945 149.133C510.366 149.047 509.807 149.245 510.069 149.444C510.127 149.487 510.224 149.52 510.35 149.539Z" fill="white" fill-opacity="0.1"/>
<path d="M372.416 151.375C372.996 151.465 373.554 151.264 373.292 151.065C373.234 151.021 373.137 150.989 373.012 150.969C372.432 150.883 371.874 151.081 372.136 151.28C372.194 151.323 372.291 151.356 372.416 151.375Z" fill="white" fill-opacity="0.1"/>
<path d="M350.993 222.163C351.572 222.25 352.131 222.051 351.869 221.852C351.81 221.809 351.714 221.776 351.588 221.757C351.009 221.667 350.45 221.869 350.712 222.068C350.771 222.111 350.867 222.144 350.993 222.163Z" fill="white" fill-opacity="0.1"/>
<path d="M588.337 53.2905C588.916 53.3804 589.474 53.179 589.212 52.9798C589.154 52.9367 589.058 52.9038 588.932 52.8846C588.352 52.7981 587.794 52.9962 588.056 53.1953C588.114 53.2385 588.211 53.2713 588.337 53.2905Z" fill="white" fill-opacity="0.8"/>
<path d="M280.551 95.8472C281.13 95.9336 281.689 95.7356 281.427 95.5364C281.369 95.4933 281.272 95.4604 281.146 95.4412C280.567 95.3514 280.009 95.5528 280.27 95.7519C280.329 95.7951 280.425 95.8279 280.551 95.8472Z" fill="white" fill-opacity="0.8"/>
<path d="M461.174 126.752C461.753 126.838 462.312 126.64 462.05 126.441C461.992 126.398 461.895 126.365 461.769 126.346C461.19 126.256 460.632 126.457 460.894 126.656C460.952 126.7 461.048 126.732 461.174 126.752Z" fill="white" fill-opacity="0.1"/>
<path d="M567.69 132.612C568.268 132.699 568.824 132.501 568.563 132.301C568.505 132.258 568.409 132.225 568.283 132.206C567.706 132.116 567.139 132.318 567.41 132.517C567.468 132.56 567.564 132.593 567.69 132.612Z" fill="white" fill-opacity="0.1"/>
<path d="M332.784 103.382C333.364 103.469 333.922 103.271 333.66 103.071C333.602 103.028 333.505 102.995 333.379 102.976C332.8 102.886 332.242 103.088 332.504 103.287C332.562 103.33 332.659 103.363 332.784 103.382Z" fill="white" fill-opacity="0.1"/>
<path d="M499.897 188.399C500.165 188.196 499.596 188.005 499.019 188.099C498.894 188.12 498.798 188.155 498.741 188.199C498.483 188.402 499.042 188.593 499.619 188.498C499.744 188.477 499.84 188.443 499.897 188.399Z" fill="white" fill-opacity="0.1"/>
<path d="M196.844 116.339C197.423 116.429 197.982 116.228 197.72 116.029C197.662 115.986 197.565 115.953 197.439 115.934C196.86 115.847 196.302 116.045 196.563 116.244C196.622 116.287 196.718 116.32 196.844 116.339Z" fill="white" fill-opacity="0.8"/>
<path d="M67.0072 171.346C67.5867 171.432 68.1449 171.234 67.8831 171.034C67.8249 170.991 67.7282 170.958 67.6026 170.939C67.0231 170.852 66.4649 171.051 66.7268 171.25C66.7849 171.294 66.8816 171.326 67.0072 171.346Z" fill="white" fill-opacity="0.1"/>
<path d="M511.515 26.8378C512.094 26.9242 512.653 26.7262 512.391 26.527C512.332 26.4839 512.236 26.451 512.11 26.4318C511.531 26.342 510.972 26.5434 511.234 26.7425C511.293 26.7857 511.389 26.8185 511.515 26.8378Z" fill="white" fill-opacity="0.1"/>
<path d="M550.081 44.6389C550.66 44.7288 551.218 44.5273 550.957 44.3282C550.898 44.285 550.802 44.2522 550.676 44.233C550.097 44.1465 549.538 44.3445 549.8 44.5437C549.858 44.5868 549.955 44.6197 550.081 44.6389Z" fill="white" fill-opacity="0.1"/>
<path d="M194.642 71.5402C195.221 71.63 195.78 71.4286 195.518 71.2294C195.46 71.1863 195.363 71.1534 195.237 71.1342C194.658 71.0477 194.1 71.2458 194.362 71.4449C194.42 71.4881 194.516 71.5209 194.642 71.5402Z" fill="white" fill-opacity="0.1"/>
<path d="M264.231 167.318C264.811 167.408 265.369 167.206 265.107 167.007C265.049 166.964 264.952 166.931 264.827 166.912C264.247 166.826 263.689 167.024 263.951 167.223C264.009 167.266 264.106 167.299 264.231 167.318Z" fill="white" fill-opacity="0.8"/>
<path d="M338.38 172.213C338.959 172.3 339.517 172.101 339.256 171.902C339.197 171.858 339.101 171.825 338.975 171.806C338.396 171.719 337.837 171.918 338.099 172.118C338.157 172.161 338.254 172.194 338.38 172.213Z" fill="white" fill-opacity="0.1"/>
<path d="M558.652 80.0567C559.23 79.959 559.791 80.1528 559.532 80.3555C559.474 80.3994 559.378 80.4336 559.253 80.4545C558.674 80.5489 558.113 80.3585 558.373 80.1557C558.43 80.1118 558.526 80.0777 558.652 80.0567Z" fill="white" fill-opacity="0.8"/>
<path d="M211.847 133.952C212.423 133.855 212.992 134.048 212.724 134.251C212.667 134.295 212.571 134.329 212.446 134.35C211.869 134.445 211.31 134.254 211.568 134.051C211.626 134.007 211.722 133.973 211.847 133.952Z" fill="white" fill-opacity="0.1"/>
<path d="M154.574 150.792C155.153 150.694 155.713 150.888 155.454 151.091C155.397 151.135 155.3 151.169 155.175 151.19C154.597 151.284 154.036 151.094 154.295 150.891C154.353 150.847 154.449 150.813 154.574 150.792Z" fill="white" fill-opacity="0.8"/>
<path d="M437.147 189.416C437.726 189.322 438.286 189.512 438.027 189.715C437.97 189.759 437.873 189.793 437.748 189.814C437.17 189.911 436.609 189.718 436.868 189.515C436.926 189.471 437.022 189.437 437.147 189.416Z" fill="white" fill-opacity="0.1"/>
<path d="M473.585 178.655C474.163 178.558 474.724 178.752 474.465 178.954C474.407 178.998 474.311 179.032 474.186 179.053C473.607 179.148 473.047 178.957 473.306 178.755C473.363 178.711 473.46 178.676 473.585 178.655Z" fill="white" fill-opacity="0.8"/>
<path d="M298.913 148.791C299.491 148.693 300.052 148.887 299.793 149.09C299.735 149.134 299.639 149.168 299.514 149.189C298.935 149.283 298.374 149.093 298.634 148.89C298.691 148.846 298.787 148.812 298.913 148.791Z" fill="white" fill-opacity="0.1"/>
<path d="M598.351 9.43528C598.93 9.34091 599.491 9.53135 599.231 9.73406C599.174 9.778 599.078 9.81214 598.952 9.83309C598.374 9.93081 597.813 9.73703 598.072 9.53431C598.13 9.49038 598.226 9.45623 598.351 9.43528Z" fill="white" fill-opacity="0.1"/>
<path d="M380.542 198.714C381.12 198.62 381.681 198.81 381.422 199.013C381.364 199.057 381.268 199.091 381.142 199.112C380.564 199.21 380.003 199.016 380.262 198.813C380.32 198.769 380.416 198.735 380.542 198.714Z" fill="white" fill-opacity="0.1"/>
<path d="M425.163 218.58C424.902 218.381 425.46 218.182 426.039 218.269C426.165 218.288 426.262 218.321 426.32 218.364C426.582 218.564 426.023 218.762 425.444 218.676C425.318 218.656 425.222 218.623 425.163 218.58Z" fill="white" fill-opacity="0.8"/>
<path d="M466.646 207.412C466.375 207.212 466.942 207.014 467.52 207.1C467.645 207.12 467.741 207.153 467.799 207.196C468.061 207.396 467.504 207.594 466.926 207.507C466.801 207.488 466.704 207.455 466.646 207.412Z" fill="white" fill-opacity="0.1"/>
<path d="M574.741 31.4357C575.319 31.3411 575.88 31.5321 575.621 31.7353C575.563 31.7794 575.467 31.8136 575.342 31.8346C574.764 31.9292 574.203 31.7383 574.462 31.535C574.519 31.491 574.616 31.4567 574.741 31.4357Z" fill="white" fill-opacity="0.1"/>
<path d="M126.175 147.956C126.753 147.859 127.314 148.053 127.055 148.255C126.997 148.299 126.901 148.333 126.776 148.354C126.198 148.449 125.637 148.258 125.896 148.056C125.953 148.012 126.05 147.977 126.175 147.956Z" fill="white" fill-opacity="0.8"/>
<path d="M151.267 4.2421C151.845 4.1475 152.406 4.33845 152.147 4.5417C152.089 4.58575 151.993 4.61999 151.868 4.64099C151.289 4.7356 150.728 4.54465 150.988 4.3414C151.045 4.29735 151.141 4.26311 151.267 4.2421Z" fill="white" fill-opacity="0.8"/>
<path d="M143.59 55.1758C144.169 55.0814 144.73 55.2718 144.47 55.4745C144.413 55.5185 144.317 55.5526 144.191 55.5736C143.613 55.6713 143.052 55.4775 143.311 55.2748C143.369 55.2309 143.465 55.1967 143.59 55.1758Z" fill="white" fill-opacity="0.1"/>
<path d="M159.917 39.658C160.496 39.5603 161.056 39.7541 160.797 39.9568C160.74 40.0008 160.643 40.0349 160.518 40.0558C159.94 40.1502 159.379 39.9598 159.638 39.7571C159.696 39.7131 159.792 39.679 159.917 39.658Z" fill="white" fill-opacity="0.1"/>
<path d="M392.805 116.394C393.381 116.297 393.95 116.49 393.682 116.693C393.625 116.737 393.529 116.771 393.404 116.792C392.827 116.887 392.268 116.696 392.526 116.493C392.584 116.449 392.68 116.415 392.805 116.394Z" fill="white" fill-opacity="0.1"/>
<path d="M524.726 84.9178C525.304 84.8232 525.865 85.0141 525.606 85.2174C525.548 85.2614 525.452 85.2956 525.327 85.3166C524.749 85.4113 524.188 85.2203 524.447 85.0171C524.504 84.973 524.601 84.9388 524.726 84.9178Z" fill="white" fill-opacity="0.8"/>
<path d="M507.172 61.4924C507.75 61.398 508.311 61.5885 508.052 61.7912C507.994 61.8351 507.898 61.8693 507.773 61.8902C507.194 61.9879 506.633 61.7942 506.893 61.5914C506.95 61.5475 507.046 61.5134 507.172 61.4924Z" fill="white" fill-opacity="0.1"/>
<path d="M144.279 96.0987C144.858 96.0041 145.419 96.195 145.159 96.3983C145.102 96.4423 145.006 96.4766 144.88 96.4976C144.302 96.5922 143.741 96.4012 144 96.198C144.058 96.1539 144.154 96.1197 144.279 96.0987Z" fill="white" fill-opacity="0.1"/>
<path d="M479.171 87.8123C479.749 87.7146 480.31 87.9084 480.051 88.1111C479.993 88.155 479.897 88.1892 479.772 88.2101C479.193 88.3045 478.632 88.1141 478.892 87.9114C478.949 87.8674 479.045 87.8333 479.171 87.8123Z" fill="white" fill-opacity="0.1"/>
<path d="M529.44 112.778C530.017 112.684 530.576 112.874 530.318 113.077C530.261 113.121 530.165 113.155 530.04 113.176C529.463 113.273 528.894 113.08 529.162 112.877C529.219 112.833 529.315 112.799 529.44 112.778Z" fill="white" fill-opacity="0.1"/>
<path d="M285.588 135.26C286.166 135.166 286.727 135.356 286.468 135.559C286.411 135.603 286.314 135.637 286.189 135.658C285.611 135.756 285.05 135.562 285.309 135.359C285.367 135.315 285.463 135.281 285.588 135.26Z" fill="white" fill-opacity="0.1"/>
<path d="M347.057 123.306C347.635 123.212 348.196 123.403 347.937 123.606C347.879 123.65 347.783 123.684 347.658 123.705C347.08 123.8 346.519 123.609 346.778 123.405C346.835 123.361 346.932 123.327 347.057 123.306Z" fill="white" fill-opacity="0.1"/>
<path d="M199.822 174.961C200.4 174.864 200.961 175.057 200.702 175.26C200.645 175.304 200.548 175.338 200.423 175.359C199.845 175.453 199.284 175.263 199.543 175.06C199.601 175.016 199.697 174.982 199.822 174.961Z" fill="white" fill-opacity="0.1"/>
<path d="M249.684 113.791C250.263 113.696 250.824 113.887 250.564 114.089C250.507 114.133 250.411 114.167 250.285 114.188C249.707 114.286 249.146 114.092 249.405 113.89C249.463 113.846 249.559 113.811 249.684 113.791Z" fill="white" fill-opacity="0.1"/>
<path d="M240.301 188.39C240.879 188.295 241.44 188.486 241.181 188.688C241.124 188.732 241.027 188.766 240.902 188.787C240.324 188.885 239.763 188.691 240.022 188.489C240.08 188.445 240.176 188.41 240.301 188.39Z" fill="white" fill-opacity="0.1"/>
<path d="M138.791 118.646C139.37 118.551 139.93 118.742 139.671 118.945C139.614 118.989 139.518 119.024 139.392 119.045C138.814 119.139 138.253 118.948 138.512 118.745C138.57 118.701 138.666 118.667 138.791 118.646Z" fill="white" fill-opacity="0.1"/>
<path d="M100.73 11.9306C101.308 11.836 101.869 12.0269 101.61 12.2302C101.552 12.2742 101.456 12.3085 101.331 12.3295C100.753 12.4241 100.192 12.2331 100.451 12.0299C100.509 11.9858 100.605 11.9516 100.73 11.9306Z" fill="white" fill-opacity="0.1"/>
<path d="M76.689 112.219C77.2673 112.121 77.8282 112.315 77.5691 112.518C77.5115 112.562 77.4152 112.596 77.2899 112.617C76.7117 112.711 76.1508 112.521 76.4099 112.318C76.4675 112.274 76.5638 112.24 76.689 112.219Z" fill="white" fill-opacity="0.8"/>
<path d="M465.848 51.5081C466.428 51.5979 466.986 51.3965 466.724 51.1973C466.666 51.1542 466.569 51.1213 466.444 51.1021C465.864 51.0156 465.306 51.2137 465.568 51.4128C465.626 51.456 465.723 51.4888 465.848 51.5081Z" fill="white" fill-opacity="0.8"/>
<path d="M336.013 106.514C336.592 106.601 337.15 106.403 336.888 106.203C336.83 106.16 336.734 106.127 336.608 106.107C336.029 106.021 335.47 106.219 335.732 106.419C335.79 106.462 335.887 106.495 336.013 106.514Z" fill="white" fill-opacity="0.1"/>
<path d="M423.579 85.9599C424.158 85.8622 424.719 86.056 424.459 86.2587C424.402 86.3026 424.306 86.3368 424.18 86.3577C423.602 86.4521 423.041 86.2617 423.3 86.0589C423.358 86.015 423.454 85.9809 423.579 85.9599Z" fill="white" fill-opacity="0.8"/>
<path d="M395.18 83.1236C395.758 83.0259 396.319 83.2197 396.06 83.4224C396.002 83.4663 395.906 83.5005 395.781 83.5214C395.203 83.6158 394.642 83.4254 394.901 83.2226C394.958 83.1787 395.055 83.1446 395.18 83.1236Z" fill="white" fill-opacity="0.8"/>
<path d="M468.826 110.127C469.405 110.029 469.966 110.223 469.707 110.425C469.649 110.469 469.553 110.503 469.427 110.524C468.849 110.619 468.288 110.428 468.547 110.226C468.605 110.182 468.701 110.147 468.826 110.127Z" fill="white" fill-opacity="0.1"/>
<path d="M407.796 53.813C408.374 53.7184 408.935 53.9094 408.676 54.1126C408.619 54.1567 408.522 54.1909 408.397 54.2119C407.819 54.3065 407.258 54.1156 407.517 53.9123C407.575 53.8683 407.671 53.834 407.796 53.813Z" fill="white" fill-opacity="0.1"/>
<path d="M345.694 47.3853C346.273 47.2876 346.834 47.4814 346.574 47.6841C346.517 47.728 346.421 47.7622 346.295 47.7831C345.717 47.8775 345.156 47.6871 345.415 47.4844C345.473 47.4404 345.569 47.4063 345.694 47.3853Z" fill="white" fill-opacity="0.8"/>
<path d="M223.698 86.3159C224.276 86.2182 224.837 86.4119 224.578 86.6147C224.521 86.6586 224.424 86.6927 224.299 86.7137C223.721 86.808 223.16 86.6176 223.419 86.4149C223.477 86.371 223.573 86.3368 223.698 86.3159Z" fill="white" fill-opacity="0.1"/>
<path d="M297.656 200.572C298.234 200.477 298.795 200.668 298.536 200.871C298.478 200.914 298.382 200.949 298.257 200.97C297.679 201.067 297.118 200.874 297.377 200.671C297.434 200.627 297.531 200.593 297.656 200.572Z" fill="white" fill-opacity="0.1"/>
<path d="M501.644 235.351C501.373 235.151 501.94 234.953 502.518 235.039C502.643 235.059 502.739 235.092 502.797 235.135C503.059 235.335 502.502 235.533 501.924 235.446C501.799 235.427 501.702 235.394 501.644 235.351Z" fill="white" fill-opacity="0.1"/>
<path d="M417.913 17.0221C418.492 17.1089 419.05 16.9103 418.789 16.7106C418.73 16.6673 418.634 16.6344 418.508 16.6151C417.929 16.5284 417.37 16.727 417.632 16.9267C417.69 16.9699 417.787 17.0028 417.913 17.0221Z" fill="white" fill-opacity="0.8"/>
<path d="M247.854 9.29249C248.433 9.38232 248.991 9.18091 248.73 8.98174C248.671 8.9386 248.575 8.90577 248.449 8.88653C247.87 8.80005 247.311 8.99811 247.573 9.19727C247.631 9.24042 247.728 9.27325 247.854 9.29249Z" fill="white" fill-opacity="0.1"/>
<path d="M367.672 22.7328C368.251 22.8196 368.81 22.621 368.548 22.4213C368.49 22.378 368.393 22.3451 368.267 22.3258C367.688 22.2391 367.13 22.4377 367.392 22.6374C367.45 22.6806 367.546 22.7135 367.672 22.7328Z" fill="white" fill-opacity="0.1"/>
<path d="M177.114 58.9178C177.694 59.0043 178.252 58.8063 177.99 58.6071C177.932 58.5639 177.835 58.5311 177.71 58.5119C177.13 58.422 176.572 58.6234 176.834 58.8226C176.892 58.8658 176.989 58.8986 177.114 58.9178Z" fill="white" fill-opacity="0.1"/>
<path d="M326.019 25.1549C326.287 24.9516 325.718 24.7607 325.142 24.8553C325.017 24.8763 324.921 24.9105 324.863 24.9545C324.605 25.1578 325.164 25.3488 325.741 25.2542C325.866 25.2332 325.962 25.1989 326.019 25.1549Z" fill="white" fill-opacity="0.1"/>
<path d="M164.512 8.93974C165.091 9.02646 165.649 8.82789 165.387 8.62818C165.329 8.58492 165.233 8.552 165.107 8.53271C164.528 8.44599 163.969 8.64456 164.231 8.84427C164.289 8.88752 164.386 8.92045 164.512 8.93974Z" fill="white" fill-opacity="0.1"/>
<path d="M263.269 26.1714C263.848 26.077 264.409 26.2674 264.149 26.4701C264.092 26.5141 263.996 26.5482 263.87 26.5692C263.292 26.6669 262.731 26.4731 262.99 26.2704C263.048 26.2265 263.144 26.1923 263.269 26.1714Z" fill="white" fill-opacity="0.1"/>
<path d="M299.718 15.3834C300.296 15.2857 300.857 15.4794 300.598 15.6822C300.54 15.7261 300.444 15.7602 300.319 15.7812C299.74 15.8756 299.18 15.6851 299.439 15.4824C299.496 15.4385 299.593 15.4043 299.718 15.3834Z" fill="white" fill-opacity="0.8"/>
<path d="M206.663 35.4706C207.242 35.3762 207.803 35.5666 207.543 35.7693C207.486 35.8133 207.39 35.8474 207.264 35.8684C206.686 35.9661 206.125 35.7723 206.384 35.5696C206.442 35.5257 206.538 35.4915 206.663 35.4706Z" fill="white" fill-opacity="0.1"/>
<path d="M251.285 55.3357C251.024 55.136 251.582 54.9374 252.161 55.0242C252.287 55.0434 252.384 55.0764 252.442 55.1196C252.704 55.3193 252.145 55.5179 251.566 55.4312C251.44 55.4119 251.344 55.379 251.285 55.3357Z" fill="white" fill-opacity="0.8"/>
<path d="M292.767 44.167C292.496 43.9673 293.063 43.7687 293.641 43.8554C293.766 43.8747 293.862 43.9077 293.92 43.9509C294.181 44.1506 293.625 44.3492 293.047 44.2625C292.922 44.2432 292.825 44.2103 292.767 44.167Z" fill="white" fill-opacity="0.1"/>
<path d="M327.766 72.1072C327.495 71.9075 328.062 71.7089 328.64 71.7956C328.765 71.8149 328.861 71.8479 328.919 71.8911C329.18 72.0908 328.624 72.2894 328.046 72.2027C327.921 72.1834 327.824 72.1504 327.766 72.1072Z" fill="white" fill-opacity="0.1"/>
</g>
<defs>
<filter id="filter0_f_610_1718" x="130.969" y="-218.757" width="407.729" height="419.929" filterUnits="userSpaceOnUse" color-interpolation-filters="sRGB">
<feFlood flood-opacity="0" result="BackgroundImageFix"/>
<feBlend mode="normal" in="SourceGraphic" in2="BackgroundImageFix" result="shape"/>
<feGaussianBlur stdDeviation="20" result="effect1_foregroundBlur_610_1718"/>
</filter>
<filter id="filter1_f_610_1718" x="-22.1165" y="-338.596" width="704.233" height="622.029" filterUnits="userSpaceOnUse" color-interpolation-filters="sRGB">
<feFlood flood-opacity="0" result="BackgroundImageFix"/>
<feBlend mode="normal" in="SourceGraphic" in2="BackgroundImageFix" result="shape"/>
<feGaussianBlur stdDeviation="20" result="effect1_foregroundBlur_610_1718"/>
</filter>
<linearGradient id="paint0_linear_610_1718" x1="662.397" y1="536.583" x2="664.452" y2="-1053.72" gradientUnits="userSpaceOnUse">
<stop stop-color="#3300FF" stop-opacity="0"/>
<stop offset="1" stop-color="#7000FF" stop-opacity="0.55"/>
</linearGradient>
<linearGradient id="paint1_linear_610_1718" x1="330" y1="-123.114" x2="336.126" y2="278.015" gradientUnits="userSpaceOnUse">
<stop stop-color="#3300FF"/>
<stop offset="1" stop-color="#7000FF" stop-opacity="0"/>
</linearGradient>
<clipPath id="clip0_610_1718">
<rect width="657" height="320" fill="white"/>
</clipPath>
</defs>
</svg>
