<svg width="221" height="221" viewBox="0 0 221 221" fill="none" xmlns="http://www.w3.org/2000/svg">
<g clip-path="url(#clip0_608_1724)">
<rect x="0.490723" y="0.838135" width="220" height="220" rx="12" fill="url(#paint0_radial_608_1724)" fill-opacity="0.2"/>
<g filter="url(#filter0_b_608_1724)">
<rect x="0.490723" y="0.838135" width="220" height="220" rx="12" fill="#D9D9D9" fill-opacity="0.121"/>
<rect x="0.990723" y="1.33813" width="219" height="219" rx="11.5" stroke="url(#paint1_linear_608_1724)" stroke-opacity="0.08"/>
</g>
<path d="M71.9193 59.4096C68.5094 59.4096 65.2391 60.7641 62.8279 63.1753C60.4167 65.5865 59.0622 68.8568 59.0622 72.2667V80.8381C59.0622 81.9748 58.6106 83.0649 57.8069 83.8686C57.0032 84.6723 55.9131 85.1238 54.7764 85.1238C53.6398 85.1238 52.5497 84.6723 51.746 83.8686C50.9423 83.0649 50.4907 81.9748 50.4907 80.8381V72.2667C50.4907 66.5835 52.7484 61.1331 56.767 57.1144C60.7856 53.0958 66.2361 50.8381 71.9193 50.8381H80.4907C81.6274 50.8381 82.7175 51.2897 83.5212 52.0934C84.3249 52.8971 84.7764 53.9872 84.7764 55.1238C84.7764 56.2605 84.3249 57.3506 83.5212 58.1543C82.7175 58.958 81.6274 59.4096 80.4907 59.4096H71.9193ZM161.919 72.2667C161.919 68.8568 160.565 65.5865 158.154 63.1753C155.742 60.7641 152.472 59.4096 149.062 59.4096H140.491C139.354 59.4096 138.264 58.958 137.46 58.1543C136.657 57.3506 136.205 56.2605 136.205 55.1238C136.205 53.9872 136.657 52.8971 137.46 52.0934C138.264 51.2897 139.354 50.8381 140.491 50.8381H149.062C154.745 50.8381 160.196 53.0958 164.214 57.1144C168.233 61.1331 170.491 66.5835 170.491 72.2667V80.8381C170.491 81.9748 170.039 83.0649 169.235 83.8686C168.432 84.6723 167.342 85.1238 166.205 85.1238C165.068 85.1238 163.978 84.6723 163.175 83.8686C162.371 83.0649 161.919 81.9748 161.919 80.8381V72.2667ZM161.919 149.41C161.919 152.819 160.565 156.09 158.154 158.501C155.742 160.912 152.472 162.267 149.062 162.267H140.491C139.354 162.267 138.264 162.718 137.46 163.522C136.657 164.326 136.205 165.416 136.205 166.552C136.205 167.689 136.657 168.779 137.46 169.583C138.264 170.387 139.354 170.838 140.491 170.838H149.062C154.745 170.838 160.196 168.58 164.214 164.562C168.233 160.543 170.491 155.093 170.491 149.41V140.838C170.491 139.701 170.039 138.611 169.235 137.808C168.432 137.004 167.342 136.552 166.205 136.552C165.068 136.552 163.978 137.004 163.175 137.808C162.371 138.611 161.919 139.701 161.919 140.838V149.41ZM59.0622 149.41C59.0622 152.819 60.4167 156.09 62.8279 158.501C65.2391 160.912 68.5094 162.267 71.9193 162.267H82.6336C83.7702 162.267 84.8603 162.718 85.664 163.522C86.4678 164.326 86.9193 165.416 86.9193 166.552C86.9193 167.689 86.4678 168.779 85.664 169.583C84.8603 170.387 83.7702 170.838 82.6336 170.838H71.9193C66.2361 170.838 60.7856 168.58 56.767 164.562C52.7484 160.543 50.4907 155.093 50.4907 149.41V138.695C50.4907 137.559 50.9423 136.469 51.746 135.665C52.5497 134.861 53.6398 134.41 54.7764 134.41C55.9131 134.41 57.0032 134.861 57.8069 135.665C58.6106 136.469 59.0622 137.559 59.0622 138.695V149.41ZM80.4907 67.981C77.0808 67.981 73.8105 69.3356 71.3993 71.7468C68.9882 74.1579 67.6336 77.4282 67.6336 80.8381V140.838C67.6336 144.248 68.9882 147.518 71.3993 149.93C73.8105 152.341 77.0808 153.695 80.4907 153.695H140.491C143.901 153.695 147.171 152.341 149.582 149.93C151.993 147.518 153.348 144.248 153.348 140.838V80.8381C153.348 77.4282 151.993 74.1579 149.582 71.7468C147.171 69.3356 143.901 67.981 140.491 67.981H80.4907ZM76.205 80.8381C76.205 79.7015 76.6565 78.6114 77.4603 77.8077C78.264 77.0039 79.3541 76.5524 80.4907 76.5524H140.491C141.627 76.5524 142.717 77.0039 143.521 77.8077C144.325 78.6114 144.776 79.7015 144.776 80.8381V140.838C144.776 141.975 144.325 143.065 143.521 143.869C142.717 144.672 141.627 145.124 140.491 145.124H80.4907C79.3541 145.124 78.264 144.672 77.4603 143.869C76.6565 143.065 76.205 141.975 76.205 140.838V80.8381Z" fill="url(#paint2_linear_608_1724)"/>
</g>
<defs>
<filter id="filter0_b_608_1724" x="-39.2048" y="-38.8574" width="299.391" height="299.391" filterUnits="userSpaceOnUse" color-interpolation-filters="sRGB">
<feFlood flood-opacity="0" result="BackgroundImageFix"/>
<feGaussianBlur in="BackgroundImageFix" stdDeviation="19.8478"/>
<feComposite in2="SourceAlpha" operator="in" result="effect1_backgroundBlur_608_1724"/>
<feBlend mode="normal" in="SourceGraphic" in2="effect1_backgroundBlur_608_1724" result="shape"/>
</filter>
<radialGradient id="paint0_radial_608_1724" cx="0" cy="0" r="1" gradientUnits="userSpaceOnUse" gradientTransform="translate(110.491 -19.0892) rotate(90) scale(129.927)">
<stop stop-color="white"/>
<stop offset="1" stop-opacity="0"/>
</radialGradient>
<linearGradient id="paint1_linear_608_1724" x1="110.491" y1="0.838135" x2="110.491" y2="220.838" gradientUnits="userSpaceOnUse">
<stop stop-color="white"/>
<stop offset="1" stop-color="white" stop-opacity="0.3"/>
</linearGradient>
<linearGradient id="paint2_linear_608_1724" x1="110.491" y1="50.8381" x2="110.491" y2="170.838" gradientUnits="userSpaceOnUse">
<stop stop-color="#C3C4C6"/>
<stop offset="1" stop-color="#C3C4C6" stop-opacity="0.47"/>
</linearGradient>
<clipPath id="clip0_608_1724">
<rect x="0.490723" y="0.838135" width="220" height="220" rx="12" fill="white"/>
</clipPath>
</defs>
</svg>
